<svg width="221" height="153" viewBox="0 0 221 153" fill="none" xmlns="http://www.w3.org/2000/svg">
<path d="M23.24 60.472C23.24 80.312 23.688 93.304 24.584 99.448C24.584 100.984 23.112 102.232 20.168 103.192C17.224 104.216 14.792 104.728 12.872 104.728C10.952 104.728 9.992 104.44 9.992 103.864C9.992 103.48 10.088 103 10.28 102.424C11.496 99.736 12.104 88.92 12.104 69.976C12.104 52.056 11.336 42.104 9.8 40.12L9.416 39.544C9.032 39.224 8.84 38.84 8.84 38.392C8.84 37.88 9.192 37.464 9.896 37.144C10.856 36.568 12.552 35.992 14.984 35.416C17.48 34.84 19.72 34.552 21.704 34.552C23.688 34.552 24.68 35 24.68 35.896V36.184C23.912 42.84 23.432 50.936 23.24 60.472Z" fill="url(#paint0_linear_27_29)"/>
<path d="M201.032 86.648C200.387 86.824 200.064 87.0293 200.064 87.264C200.064 87.44 200.768 87.792 202.176 88.32C203.584 88.848 204.904 89.6693 206.136 90.784C207.427 91.8987 208.336 93.248 208.864 94.832C209.685 97.2373 210.096 99.8187 210.096 102.576C210.096 105.333 210.301 107.621 210.712 109.44C211.123 111.2 211.621 112.549 212.208 113.488C213.381 115.483 214.467 116.715 215.464 117.184L216.08 117.536C216.432 117.771 216.608 118.064 216.608 118.416C216.608 119.296 215.171 120.059 212.296 120.704C209.421 121.408 207.192 121.76 205.608 121.76C202.499 121.76 200.504 120.528 199.624 118.064C198.803 115.541 198.392 111.259 198.392 105.216V100.376C198.392 95.272 196.867 92.016 193.816 90.608C192.643 90.08 191.235 89.816 189.592 89.816H189.504C188.976 89.816 188.712 89.3173 188.712 88.32C188.712 87.264 189.005 86.208 189.592 85.152C190.237 84.096 190.795 83.568 191.264 83.568C193.2 83.568 194.872 83.216 196.28 82.512C197.688 81.7493 198.715 80.84 199.36 79.784C200.709 77.5547 201.443 75.648 201.56 74.064V72.92C201.56 70.7493 201.208 68.9307 200.504 67.464C199.8 65.9387 198.92 64.8827 197.864 64.296C196.104 63.3573 194.315 62.888 192.496 62.888C190.677 62.888 189.181 63.0347 188.008 63.328C186.365 63.7973 185.544 64.296 185.544 64.824C185.016 72.5093 184.752 79.9307 184.752 87.088C184.752 94.1867 184.84 99.6427 185.016 103.456C185.251 107.211 185.456 110.261 185.632 112.608C185.867 114.896 185.984 116.245 185.984 116.656C185.984 117.419 185.779 117.947 185.368 118.24C182.963 120.469 179.179 121.584 174.016 121.584C173.136 121.584 172.696 121.291 172.696 120.704C172.696 120.528 172.784 120.117 172.96 119.472C173.547 118.123 173.957 113.84 174.192 106.624C174.485 99.408 174.632 92.8373 174.632 86.912C174.632 80.928 174.515 76.088 174.28 72.392C173.928 66.8187 173.341 63.4747 172.52 62.36C171.875 61.5387 171.552 60.9813 171.552 60.688C171.552 60.336 171.875 59.984 172.52 59.632C176.275 57.872 183.08 56.992 192.936 56.992C200.856 56.992 206.781 59.2213 210.712 63.68C212.824 66.144 213.88 69.224 213.88 72.92C213.88 75.1493 213.44 77.144 212.56 78.904C211.68 80.664 210.595 82.0133 209.304 82.952C206.84 84.8293 204.523 85.9733 202.352 86.384L201.032 86.648Z" fill="white"/>
<path d="M201.032 86.648C200.387 86.824 200.064 87.0293 200.064 87.264C200.064 87.44 200.768 87.792 202.176 88.32C203.584 88.848 204.904 89.6693 206.136 90.784C207.427 91.8987 208.336 93.248 208.864 94.832C209.685 97.2373 210.096 99.8187 210.096 102.576C210.096 105.333 210.301 107.621 210.712 109.44C211.123 111.2 211.621 112.549 212.208 113.488C213.381 115.483 214.467 116.715 215.464 117.184L216.08 117.536C216.432 117.771 216.608 118.064 216.608 118.416C216.608 119.296 215.171 120.059 212.296 120.704C209.421 121.408 207.192 121.76 205.608 121.76C202.499 121.76 200.504 120.528 199.624 118.064C198.803 115.541 198.392 111.259 198.392 105.216V100.376C198.392 95.272 196.867 92.016 193.816 90.608C192.643 90.08 191.235 89.816 189.592 89.816H189.504C188.976 89.816 188.712 89.3173 188.712 88.32C188.712 87.264 189.005 86.208 189.592 85.152C190.237 84.096 190.795 83.568 191.264 83.568C193.2 83.568 194.872 83.216 196.28 82.512C197.688 81.7493 198.715 80.84 199.36 79.784C200.709 77.5547 201.443 75.648 201.56 74.064V72.92C201.56 70.7493 201.208 68.9307 200.504 67.464C199.8 65.9387 198.92 64.8827 197.864 64.296C196.104 63.3573 194.315 62.888 192.496 62.888C190.677 62.888 189.181 63.0347 188.008 63.328C186.365 63.7973 185.544 64.296 185.544 64.824C185.016 72.5093 184.752 79.9307 184.752 87.088C184.752 94.1867 184.84 99.6427 185.016 103.456C185.251 107.211 185.456 110.261 185.632 112.608C185.867 114.896 185.984 116.245 185.984 116.656C185.984 117.419 185.779 117.947 185.368 118.24C182.963 120.469 179.179 121.584 174.016 121.584C173.136 121.584 172.696 121.291 172.696 120.704C172.696 120.528 172.784 120.117 172.96 119.472C173.547 118.123 173.957 113.84 174.192 106.624C174.485 99.408 174.632 92.8373 174.632 86.912C174.632 80.928 174.515 76.088 174.28 72.392C173.928 66.8187 173.341 63.4747 172.52 62.36C171.875 61.5387 171.552 60.9813 171.552 60.688C171.552 60.336 171.875 59.984 172.52 59.632C176.275 57.872 183.08 56.992 192.936 56.992C200.856 56.992 206.781 59.2213 210.712 63.68C212.824 66.144 213.88 69.224 213.88 72.92C213.88 75.1493 213.44 77.144 212.56 78.904C211.68 80.664 210.595 82.0133 209.304 82.952C206.84 84.8293 204.523 85.9733 202.352 86.384L201.032 86.648Z" fill="url(#paint1_linear_27_29)"/>
<path d="M41.9609 88H39.6523V77.8281H33.2188V88H30.9219V75.5195H33.2188V77.7227C33.2344 77.418 33.3047 77.1328 33.4297 76.8672C33.5547 76.5938 33.7188 76.3594 33.9219 76.1641C34.1328 75.9609 34.375 75.8047 34.6484 75.6953C34.9219 75.5781 35.2148 75.5195 35.5273 75.5195H39.6523C39.9727 75.5195 40.2734 75.582 40.5547 75.707C40.8359 75.8242 41.0781 75.9883 41.2812 76.1992C41.4922 76.4023 41.6562 76.6445 41.7734 76.9258C41.8984 77.207 41.9609 77.5078 41.9609 77.8281V88ZM45.0781 75.5195H48.125V71.6758H50.4336V75.5195H54.5352V77.8281H50.4336V85.6914H54.5352V88H50.4336C50.1211 88 49.8242 87.9414 49.543 87.8242C49.2617 87.6992 49.0156 87.5352 48.8047 87.332C48.5938 87.1211 48.4258 86.875 48.3008 86.5938C48.1836 86.3125 48.125 86.0117 48.125 85.6914V77.8281H45.0781V75.5195ZM68.9492 82.9375H60.6875V85.6914H68.9492V88H60.6875C60.375 88 60.0781 87.9414 59.7969 87.8242C59.5156 87.6992 59.2695 87.5352 59.0586 87.332C58.8555 87.1211 58.6914 86.875 58.5664 86.5938C58.4492 86.3125 58.3906 86.0117 58.3906 85.6914V77.8281C58.3906 77.5078 58.4492 77.207 58.5664 76.9258C58.6914 76.6445 58.8555 76.4023 59.0586 76.1992C59.2695 75.9883 59.5156 75.8242 59.7969 75.707C60.0781 75.582 60.375 75.5195 60.6875 75.5195H66.6406C66.9609 75.5195 67.2617 75.582 67.543 75.707C67.8242 75.8242 68.0664 75.9883 68.2695 76.1992C68.4805 76.4023 68.6445 76.6445 68.7617 76.9258C68.8867 77.207 68.9492 77.5078 68.9492 77.8281V82.9375ZM60.6875 77.8281V80.6289H66.6406V77.8281H60.6875ZM75.1016 77.8281V88H72.8047V75.5195H75.1016V77.7227C75.1172 77.418 75.1875 77.1328 75.3125 76.8672C75.4375 76.5938 75.6016 76.3594 75.8047 76.1641C76.0156 75.9609 76.2578 75.8047 76.5312 75.6953C76.8047 75.5781 77.0977 75.5195 77.4102 75.5195H79.8594C80.1797 75.5195 80.4766 75.582 80.75 75.707C81.0312 75.8242 81.2773 75.9883 81.4883 76.1992C81.6992 76.4023 81.8633 76.6445 81.9805 76.9258C82.1055 77.207 82.168 77.5078 82.168 77.8281V79.9375H79.8594V77.8281H75.1016ZM88.5898 88L83.5977 75.5195H86L89.7852 85.2344L93.582 75.5195H95.9844L90.9922 88H88.5898ZM98.3984 75.5195H100.695V85.6914H107.129V75.5195H109.438V88H107.129V85.8906C107.105 86.1797 107.027 86.4531 106.895 86.7109C106.762 86.9688 106.59 87.1953 106.379 87.3906C106.176 87.5781 105.941 87.7266 105.676 87.8359C105.41 87.9453 105.129 88 104.832 88H100.695C100.383 88 100.086 87.9414 99.8047 87.8242C99.5234 87.6992 99.2773 87.5352 99.0664 87.332C98.8633 87.1211 98.6992 86.875 98.5742 86.5938C98.457 86.3125 98.3984 86.0117 98.3984 85.6914V75.5195Z" fill="black"/>
<path d="M131.219 77.8281V88H128.922V75.5195H131.219V77.7227C131.234 77.418 131.305 77.1328 131.43 76.8672C131.555 76.5938 131.719 76.3594 131.922 76.1641C132.133 75.9609 132.375 75.8047 132.648 75.6953C132.922 75.5781 133.215 75.5195 133.527 75.5195H135.977C136.297 75.5195 136.594 75.582 136.867 75.707C137.148 75.8242 137.395 75.9883 137.605 76.1992C137.816 76.4023 137.98 76.6445 138.098 76.9258C138.223 77.207 138.285 77.5078 138.285 77.8281V79.9375H135.977V77.8281H131.219ZM141.156 82.5508C141.156 82.2305 141.215 81.9336 141.332 81.6602C141.457 81.3789 141.621 81.1328 141.824 80.9219C142.035 80.7109 142.281 80.5469 142.562 80.4297C142.844 80.3047 143.141 80.2422 143.453 80.2422H149.406V77.8281H141.871V75.5195H149.406C149.727 75.5195 150.027 75.582 150.309 75.707C150.59 75.8242 150.832 75.9883 151.035 76.1992C151.246 76.4023 151.41 76.6445 151.527 76.9258C151.652 77.207 151.715 77.5078 151.715 77.8281V88H149.406V85.8906C149.383 86.1797 149.305 86.4531 149.172 86.7109C149.039 86.9688 148.867 87.1953 148.656 87.3906C148.453 87.5781 148.219 87.7266 147.953 87.8359C147.688 87.9453 147.406 88 147.109 88H143.453C143.141 88 142.844 87.9414 142.562 87.8242C142.281 87.6992 142.035 87.5352 141.824 87.332C141.621 87.1211 141.457 86.875 141.332 86.5938C141.215 86.3125 141.156 86.0117 141.156 85.6914V82.5508ZM143.453 85.6914H149.406V82.5508H143.453V85.6914ZM157.867 77.8281V85.6914H163.82V83.582H166.129V85.6914C166.129 86.0117 166.066 86.3125 165.941 86.5938C165.824 86.875 165.66 87.1211 165.449 87.332C165.246 87.5352 165.004 87.6992 164.723 87.8242C164.441 87.9414 164.141 88 163.82 88H157.867C157.555 88 157.258 87.9414 156.977 87.8242C156.695 87.6992 156.449 87.5352 156.238 87.332C156.035 87.1211 155.871 86.875 155.746 86.5938C155.629 86.3125 155.57 86.0117 155.57 85.6914V77.8281C155.57 77.5078 155.629 77.207 155.746 76.9258C155.871 76.6445 156.035 76.4023 156.238 76.1992C156.449 75.9883 156.695 75.8242 156.977 75.707C157.258 75.582 157.555 75.5195 157.867 75.5195H163.82C164.141 75.5195 164.441 75.582 164.723 75.707C165.004 75.8242 165.246 75.9883 165.449 76.1992C165.66 76.4023 165.824 76.6445 165.941 76.9258C166.066 77.207 166.129 77.5078 166.129 77.8281V79.9375H163.82V77.8281H157.867Z" fill="black"/>
<path d="M109.953 65.5938H127.875V68.7969H120.516V88H117.312V68.7969H109.953V65.5938Z" fill="black"/>
<line x1="58" y1="95.5" x2="158" y2="95.5" stroke="black"/>
<line x1="73" y1="98.5" x2="158" y2="98.5" stroke="black"/>
<path d="M163.625 96.6562V94H159.719C159.459 94 159.25 94.209 159.25 94.4688V103.531C159.25 103.791 159.459 104 159.719 104H166.281C166.541 104 166.75 103.791 166.75 103.531V97.125H164.094C163.836 97.125 163.625 96.9141 163.625 96.6562ZM164.875 101.266C164.875 101.395 164.77 101.5 164.641 101.5H161.359C161.23 101.5 161.125 101.395 161.125 101.266V101.109C161.125 100.98 161.23 100.875 161.359 100.875H164.641C164.77 100.875 164.875 100.98 164.875 101.109V101.266ZM164.875 100.016C164.875 100.145 164.77 100.25 164.641 100.25H161.359C161.23 100.25 161.125 100.145 161.125 100.016V99.8594C161.125 99.7305 161.23 99.625 161.359 99.625H164.641C164.77 99.625 164.875 99.7305 164.875 99.8594V100.016ZM164.875 98.6094V98.7656C164.875 98.8945 164.77 99 164.641 99H161.359C161.23 99 161.125 98.8945 161.125 98.7656V98.6094C161.125 98.4805 161.23 98.375 161.359 98.375H164.641C164.77 98.375 164.875 98.4805 164.875 98.6094ZM166.75 96.3809V96.5H164.25V94H164.369C164.494 94 164.613 94.0488 164.701 94.1367L166.613 96.0508C166.701 96.1387 166.75 96.2578 166.75 96.3809Z" fill="white"/>
<path d="M163.625 96.6562V94H159.719C159.459 94 159.25 94.209 159.25 94.4688V103.531C159.25 103.791 159.459 104 159.719 104H166.281C166.541 104 166.75 103.791 166.75 103.531V97.125H164.094C163.836 97.125 163.625 96.9141 163.625 96.6562ZM164.875 101.266C164.875 101.395 164.77 101.5 164.641 101.5H161.359C161.23 101.5 161.125 101.395 161.125 101.266V101.109C161.125 100.98 161.23 100.875 161.359 100.875H164.641C164.77 100.875 164.875 100.98 164.875 101.109V101.266ZM164.875 100.016C164.875 100.145 164.77 100.25 164.641 100.25H161.359C161.23 100.25 161.125 100.145 161.125 100.016V99.8594C161.125 99.7305 161.23 99.625 161.359 99.625H164.641C164.77 99.625 164.875 99.7305 164.875 99.8594V100.016ZM164.875 98.6094V98.7656C164.875 98.8945 164.77 99 164.641 99H161.359C161.23 99 161.125 98.8945 161.125 98.7656V98.6094C161.125 98.4805 161.23 98.375 161.359 98.375H164.641C164.77 98.375 164.875 98.4805 164.875 98.6094ZM166.75 96.3809V96.5H164.25V94H164.369C164.494 94 164.613 94.0488 164.701 94.1367L166.613 96.0508C166.701 96.1387 166.75 96.2578 166.75 96.3809Z" fill="url(#paint2_linear_27_29)"/>
<path d="M163.625 96.6562V94H159.719C159.459 94 159.25 94.209 159.25 94.4688V103.531C159.25 103.791 159.459 104 159.719 104H166.281C166.541 104 166.75 103.791 166.75 103.531V97.125H164.094C163.836 97.125 163.625 96.9141 163.625 96.6562ZM164.875 101.266C164.875 101.395 164.77 101.5 164.641 101.5H161.359C161.23 101.5 161.125 101.395 161.125 101.266V101.109C161.125 100.98 161.23 100.875 161.359 100.875H164.641C164.77 100.875 164.875 100.98 164.875 101.109V101.266ZM164.875 100.016C164.875 100.145 164.77 100.25 164.641 100.25H161.359C161.23 100.25 161.125 100.145 161.125 100.016V99.8594C161.125 99.7305 161.23 99.625 161.359 99.625H164.641C164.77 99.625 164.875 99.7305 164.875 99.8594V100.016ZM164.875 98.6094V98.7656C164.875 98.8945 164.77 99 164.641 99H161.359C161.23 99 161.125 98.8945 161.125 98.7656V98.6094C161.125 98.4805 161.23 98.375 161.359 98.375H164.641C164.77 98.375 164.875 98.4805 164.875 98.6094ZM166.75 96.3809V96.5H164.25V94H164.369C164.494 94 164.613 94.0488 164.701 94.1367L166.613 96.0508C166.701 96.1387 166.75 96.2578 166.75 96.3809Z" stroke="white"/>
<ellipse opacity="0.3" cx="128.5" cy="76" rx="70.5" ry="71" fill="url(#paint3_linear_27_29)"/>
<defs>
<linearGradient id="paint0_linear_27_29" x1="17" y1="16" x2="17" y2="134" gradientUnits="userSpaceOnUse">
<stop stop-color="#A27FC6"/>
<stop offset="1" stop-color="#3E4698"/>
</linearGradient>
<linearGradient id="paint1_linear_27_29" x1="192.5" y1="40" x2="192.5" y2="148" gradientUnits="userSpaceOnUse">
<stop stop-color="#A27FC6"/>
<stop offset="1" stop-color="#3E4698"/>
</linearGradient>
<linearGradient id="paint2_linear_27_29" x1="163" y1="94" x2="163" y2="104" gradientUnits="userSpaceOnUse">
<stop stop-color="#A27FC6"/>
<stop offset="1" stop-color="#3E4698"/>
</linearGradient>
<linearGradient id="paint3_linear_27_29" x1="128.5" y1="5" x2="128.5" y2="147" gradientUnits="userSpaceOnUse">
<stop stop-color="#935AF3"/>
<stop offset="1" stop-color="#B2B0FF" stop-opacity="0.37"/>
</linearGradient>
</defs>
</svg>
